<?xml version="1.0" encoding="utf-8"?>
<!-- Generator: Adobe Illustrator 26.0.3, SVG Export Plug-In . SVG Version: 6.00 Build 0)  -->
<svg version="1.1" id="Layer_1" xmlns="http://www.w3.org/2000/svg" xmlns:xlink="http://www.w3.org/1999/xlink" x="0px" y="0px"
	 width="304.9px" height="155.6px" viewBox="0 0 304.9 155.6" style="enable-background:new 0 0 304.9 155.6;" xml:space="preserve"
	>
<g>
	<path d="M70.2,9.2c7.1,6.1,10.6,14.7,10.6,25.8c0,11.6-3.6,20.6-10.7,26.9c-7.1,6.4-17.1,9.6-30,9.6H14.3v32.3H0.1V0h40.1
		C53.1,0,63.1,3.1,70.2,9.2z M60,52.8c4.7-3.9,7.1-9.7,7.1-17.3c0-7.4-2.4-13-7.1-16.8c-4.7-3.8-11.6-5.7-20.5-5.7l-25.2,0.1v45.6
		h25.2C48.5,58.6,55.3,56.7,60,52.8z"/>
	<path d="M164.9,103.9l-20.6-32.6c-2.4,0.2-4.3,0.3-5.8,0.3h-26.4v32.3H97.9V0h40.7c13.2,0,23.3,3,30.5,9.1
		c7.2,6.1,10.8,14.7,10.8,25.9c0,8.4-2,15.5-5.9,21.2c-3.9,5.7-9.5,9.9-16.8,12.5l24.2,35.2H164.9z M138.5,58.6
		c8.9,0,15.7-2,20.5-5.9c4.7-3.9,7.1-9.7,7.1-17.3c0-7.4-2.4-13-7.1-16.8c-4.7-3.8-11.6-5.7-20.5-5.7h-26.4v45.7H138.5z"/>
</g>
<g>
	<path d="M18.4,131c-1.9-0.6-3.4-0.9-4.7-0.9c-1,0-1.8,0.2-2.4,0.5c-0.6,0.4-0.8,0.9-0.8,1.7c0,0.7,0.2,1.2,0.7,1.7
		c0.5,0.4,1.1,0.8,1.9,1.1c0.7,0.3,1.9,0.6,3.3,1c2.2,0.6,4,1.2,5.3,1.9c1.5,0.6,2.6,1.6,3.6,2.9c1,1.2,1.6,3,1.6,5
		c0,2.1-0.5,3.9-1.7,5.3c-1.1,1.5-2.6,2.6-4.5,3.3s-4.1,1.1-6.3,1.1c-2.6,0-5.1-0.4-7.7-1.4c-2.6-0.9-4.8-2.2-6.7-3.7l3.1-6.3
		c1.6,1.4,3.4,2.5,5.6,3.4c2.2,0.9,4.1,1.4,5.7,1.4c1.2,0,2.2-0.2,2.9-0.6c0.7-0.4,1-1.1,1-2c0-0.7-0.2-1.4-0.7-1.8
		c-0.5-0.5-1.1-0.8-2-1.1c-0.8-0.3-1.9-0.6-3.3-1c-2.1-0.6-3.9-1.1-5.3-1.8c-1.4-0.6-2.6-1.6-3.5-2.7c-1-1.2-1.5-2.9-1.5-4.9
		c0-2,0.5-3.6,1.6-5.1s2.5-2.6,4.4-3.3c1.9-0.8,4.1-1.1,6.6-1.1c2.3,0,4.5,0.3,6.7,0.9c2.2,0.6,4.2,1.5,5.7,2.6l-3,6.5
		C22.2,132.3,20.4,131.6,18.4,131z"/>
	<path d="M75.5,124h8.1v31.1h-8.1V124z"/>
	<path d="M131.4,124h26.8v6.7h-9.4v24.5h-8.1v-24.5h-9.3V124z"/>
	<path d="M205.8,124h24.6v6.5h-16.4v5.8h14.9v6.5h-14.9v5.8h16.9v6.5h-25L205.8,124L205.8,124z"/>
	<path d="M296.3,131c-1.9-0.6-3.4-0.9-4.7-0.9c-1,0-1.8,0.2-2.4,0.5c-0.6,0.4-0.8,0.9-0.8,1.7c0,0.7,0.2,1.2,0.7,1.7
		c0.5,0.4,1.1,0.8,1.9,1.1c0.7,0.3,1.9,0.6,3.3,1c2.2,0.6,4,1.2,5.3,1.9c1.5,0.6,2.6,1.6,3.6,2.9c1,1.2,1.6,3,1.6,5
		c0,2.1-0.5,3.9-1.7,5.3s-2.6,2.6-4.5,3.3s-4.1,1.1-6.3,1.1c-2.6,0-5.1-0.4-7.7-1.4c-2.6-0.9-4.8-2.2-6.7-3.7l3.1-6.3
		c1.6,1.4,3.4,2.5,5.6,3.4c2.2,0.9,4.1,1.4,5.7,1.4c1.2,0,2.2-0.2,2.9-0.6s1-1.1,1-2c0-0.7-0.2-1.4-0.7-1.8c-0.5-0.5-1.1-0.8-2-1.1
		c-0.8-0.3-1.9-0.6-3.3-1c-2.1-0.6-3.9-1.1-5.3-1.8c-1.4-0.6-2.6-1.6-3.5-2.7c-1-1.2-1.5-2.9-1.5-4.9c0-2,0.5-3.6,1.6-5.1
		c1-1.5,2.5-2.6,4.4-3.3c1.9-0.8,4.1-1.1,6.6-1.1c2.3,0,4.5,0.3,6.7,0.9c2.2,0.6,4.2,1.5,5.7,2.6l-3,6.5
		C300,132.3,298.2,131.6,296.3,131z"/>
</g>
<path d="M301.5,22L285.6,4.4c-2.5-2.8-6.1-4.4-9.9-4.4h-65.3C203,0,197,6,197,13.4v58.5c0,3.3,1.2,6.5,3.5,9l17.6,19.3
	c2.5,2.8,6.1,4.4,9.9,4.4h63.6c7.4,0,13.4-6,13.4-13.4V31C305,27.7,303.7,24.5,301.5,22z M292.3,80.7c0,6.4-5.2,11.5-11.5,11.5H234
	c-3.3,0-6.4-1.4-8.5-3.8l-12.7-14c-1.9-2.1-3-4.9-3-7.8v-43c0-6.4,5.2-11.5,11.5-11.5h48c3.3,0,6.4,1.4,8.6,3.8l11.5,12.7
	c1.9,2.1,3,4.9,3,7.7V80.7z"/>
<polygon points="263.3,49.4 254.1,49.4 254.1,40.2 248.1,40.2 248.1,49.4 238.9,49.4 238.9,55.4 248.1,55.4 248.1,64.5 254.1,64.5 
	254.1,55.4 263.3,55.4 "/>
</svg>
